{
	"asset":{
		"generator":"Khronos glTF Blender I/O v4.1.63",
		"version":"2.0"
	},
	"scene":0,
	"scenes":[
		{
			"name":"Scene",
			"nodes":[
				0
			]
		}
	],
	"nodes":[
		{
			"mesh":0,
			"name":"mesh",
			"rotation":[
				0.7071068286895752,
				0,
				0,
				0.7071068286895752
			]
		}
	],
	"materials":[
		{
			"doubleSided":true,
			"name":"main",
			"pbrMetallicRoughness":{
				"baseColorTexture":{
					"index":0
				},
				"metallicFactor":0,
				"roughnessFactor":0.5527864098548889
			}
		}
	],
	"meshes":[
		{
			"name":"Mesh",
			"primitives":[
				{
					"attributes":{
						"POSITION":0,
						"NORMAL":1,
						"TEXCOORD_0":2
					},
					"indices":3,
					"material":0
				}
			]
		}
	],
	"textures":[
		{
			"sampler":0,
			"source":0
		}
	],
	"images":[
		{
			"mimeType":"image/jpeg",
			"name":"texture",
			"uri":"texture.jpg"
		}
	],
	"accessors":[
		{
			"bufferView":0,
			"componentType":5126,
			"count":114523,
			"max":[
				2.30549955368042,
				2.3590173721313477,
				0.026718318462371826
			],
			"min":[
				-2.2819719314575195,
				-2.5760464668273926,
				-3.5067317485809326
			],
			"type":"VEC3"
		},
		{
			"bufferView":1,
			"componentType":5126,
			"count":114523,
			"type":"VEC3"
		},
		{
			"bufferView":2,
			"componentType":5126,
			"count":114523,
			"type":"VEC2"
		},
		{
			"bufferView":3,
			"componentType":5125,
			"count":617007,
			"type":"SCALAR"
		}
	],
	"bufferViews":[
		{
			"buffer":0,
			"byteLength":1374276,
			"byteOffset":0,
			"target":34962
		},
		{
			"buffer":0,
			"byteLength":1374276,
			"byteOffset":1374276,
			"target":34962
		},
		{
			"buffer":0,
			"byteLength":916184,
			"byteOffset":2748552,
			"target":34962
		},
		{
			"buffer":0,
			"byteLength":2468028,
			"byteOffset":3664736,
			"target":34963
		}
	],
	"samplers":[
		{
			"magFilter":9729,
			"minFilter":9987
		}
	],
	"buffers":[
		{
			"byteLength":6132764,
			"uri":"scene.bin"
		}
	]
}
